<?xml version="1.0" standalone="no"?>
<!DOCTYPE svg PUBLIC "-//W3C//DTD SVG 20010904//EN"
 "http://www.w3.org/TR/2001/REC-SVG-20010904/DTD/svg10.dtd">
<svg version="1.0" xmlns="http://www.w3.org/2000/svg"
 width="1440.000000pt" height="1440.000000pt" viewBox="0 0 1440.000000 1440.000000"
 preserveAspectRatio="xMidYMid meet">

<g transform="translate(0.000000,1440.000000) scale(0.100000,-0.100000)"
fill="#000000" stroke="none">
<path d="M190 13945 l0 -265 28 0 c46 0 124 -46 157 -92 25 -36 30 -55 33
-113 4 -66 2 -73 -30 -120 -36 -54 -89 -89 -149 -99 l-39 -6 0 -175 0 -175 28
0 c48 0 127 -47 158 -93 38 -57 46 -155 16 -213 -33 -65 -88 -104 -164 -118
l-38 -7 0 -174 0 -175 28 0 c48 0 127 -47 158 -93 23 -34 29 -56 32 -112 4
-66 2 -73 -30 -120 -36 -54 -89 -89 -149 -99 l-39 -6 0 -175 0 -175 28 0 c49
0 125 -43 157 -90 25 -36 30 -55 33 -114 4 -67 2 -74 -30 -121 -36 -54 -89
-89 -149 -99 l-39 -6 0 -175 0 -175 33 0 c47 0 116 -41 151 -89 26 -36 31 -53
34 -114 3 -66 1 -76 -27 -120 -31 -47 -77 -83 -119 -92 -12 -3 -33 -7 -47 -10
l-25 -5 0 -175 0 -175 33 0 c49 0 114 -39 150 -88 27 -37 32 -54 35 -115 3
-66 1 -76 -27 -120 -17 -26 -45 -56 -63 -67 -31 -19 -43 -23 -105 -36 -23 -4
-23 -6 -23 -179 l0 -175 33 0 c49 0 114 -39 150 -88 27 -37 32 -54 35 -115 4
-68 2 -75 -30 -122 -37 -56 -101 -95 -155 -95 l-33 0 0 -179 0 -178 46 -6
c142 -16 224 -195 145 -318 -35 -55 -87 -90 -147 -97 l-44 -5 0 -177 0 -177
46 -6 c142 -16 224 -195 145 -318 -35 -55 -87 -90 -147 -97 l-44 -5 0 -177 0
-177 44 -5 c60 -7 112 -42 147 -97 79 -123 -3 -302 -145 -318 l-46 -6 0 -177
0 -177 46 -6 c60 -6 121 -49 151 -106 67 -128 -14 -293 -151 -308 l-46 -6 0
-178 0 -179 33 0 c54 0 118 -39 155 -95 32 -47 34 -54 30 -122 -3 -61 -8 -78
-35 -115 -36 -49 -101 -88 -150 -88 l-33 0 0 -175 0 -175 25 -5 c14 -3 35 -7
48 -10 41 -9 87 -45 118 -92 28 -44 30 -54 27 -120 -3 -61 -8 -78 -35 -115
-36 -49 -101 -88 -150 -88 l-33 0 0 -175 0 -175 25 -5 c14 -3 35 -7 48 -10 41
-9 87 -45 118 -92 28 -44 30 -54 27 -120 -3 -61 -8 -78 -34 -114 -35 -48 -104
-89 -151 -89 l-33 0 0 -175 0 -175 39 -6 c60 -10 113 -45 149 -99 32 -47 34
-54 30 -120 -3 -56 -9 -78 -32 -112 -31 -46 -110 -93 -158 -93 l-28 0 0 -175
0 -175 39 -6 c60 -10 113 -45 149 -99 32 -47 34 -54 30 -120 -3 -56 -9 -78
-32 -112 -31 -46 -110 -93 -158 -93 l-28 0 0 -175 0 -174 38 -7 c77 -14 132
-55 167 -123 27 -53 17 -154 -19 -208 -31 -46 -110 -93 -158 -93 l-28 0 0
-295 0 -295 65 0 c59 0 65 2 65 20 0 27 42 110 67 132 10 10 41 27 67 39 119
52 254 -17 289 -148 l11 -43 173 0 c167 0 173 1 173 20 0 36 41 110 79 140 66
55 146 64 228 25 58 -26 107 -90 119 -152 l6 -33 173 0 172 0 7 38 c7 48 53
112 100 141 93 58 227 27 286 -65 16 -26 33 -62 36 -81 l6 -33 173 0 172 0 7
38 c7 48 53 112 100 141 93 58 227 27 286 -65 16 -26 33 -62 36 -81 l6 -33
173 0 172 0 7 38 c7 48 53 112 100 141 93 58 227 27 286 -65 16 -26 33 -62 36
-81 l6 -33 173 0 172 0 7 38 c7 48 53 112 100 141 92 57 227 27 285 -64 16
-25 32 -61 35 -80 l7 -35 173 0 173 0 7 38 c7 48 53 112 100 141 20 12 60 25
90 28 47 5 64 2 110 -21 61 -30 109 -90 120 -151 l7 -35 173 0 173 0 7 39 c7
47 58 117 103 144 18 10 57 21 87 24 47 5 64 2 110 -21 61 -30 109 -90 120
-151 l7 -35 174 0 c169 0 175 1 175 20 0 60 58 140 125 171 119 55 275 -26
299 -156 l7 -35 174 0 175 0 0 25 c0 34 31 93 67 127 117 112 310 52 353 -109
l11 -43 174 0 175 0 0 25 c0 34 31 93 67 127 117 111 309 52 352 -110 l12 -42
174 0 175 0 0 25 c0 34 31 93 67 127 60 58 153 74 229 39 53 -24 109 -91 123
-147 l11 -44 175 0 175 0 0 25 c0 34 31 93 67 127 60 58 153 74 229 39 53 -24
111 -93 122 -145 l8 -41 177 -3 177 -2 0 25 c0 14 9 42 19 63 83 162 299 162
382 0 10 -21 19 -49 19 -63 l0 -25 177 2 177 3 6 30 c28 131 168 209 288 159
68 -28 132 -110 132 -169 l0 -25 177 2 177 3 8 41 c11 52 69 121 122 145 76
35 169 19 229 -39 36 -34 67 -93 67 -127 l0 -25 175 0 174 0 11 41 c35 131
170 203 288 153 68 -28 132 -110 132 -169 l0 -25 175 0 174 0 11 43 c34 128
171 200 288 151 68 -28 132 -110 132 -169 l0 -25 105 0 105 0 0 295 0 294 -40
11 c-51 14 -108 63 -131 115 -53 117 19 267 140 291 l31 7 0 178 0 178 -40 11
c-85 23 -149 111 -150 203 0 90 64 177 146 199 l44 12 0 178 0 177 -40 11
c-51 14 -108 63 -131 115 -53 117 19 267 140 291 l31 6 0 178 0 177 -40 12
c-52 15 -108 65 -131 116 -53 117 19 267 140 291 l31 7 0 177 0 177 -40 12
c-86 26 -149 112 -150 205 0 90 74 185 158 202 l32 6 0 178 0 177 -40 12 c-86
26 -149 112 -150 205 0 90 75 186 160 203 l30 5 0 178 0 177 -40 12 c-86 26
-149 112 -150 205 0 90 71 182 158 201 l32 7 0 177 0 178 -40 12 c-50 15 -105
62 -131 112 -56 112 17 267 139 294 l32 7 0 178 0 178 -32 7 c-122 27 -195
182 -139 294 26 50 81 97 131 112 l40 12 0 178 0 177 -32 7 c-87 19 -158 111
-158 201 1 93 64 179 150 205 l40 12 0 177 0 178 -30 5 c-85 17 -160 113 -160
203 1 93 64 179 150 205 l40 12 0 177 0 178 -31 6 c-86 17 -159 109 -159 201
1 94 63 180 150 206 l40 12 0 177 0 178 -31 6 c-86 17 -159 109 -159 201 1 94
63 180 150 206 l40 12 0 177 0 178 -31 6 c-86 17 -159 109 -159 201 1 94 65
182 150 205 l40 11 0 177 0 178 -44 12 c-82 22 -146 109 -146 199 1 92 65 180
150 203 l40 11 0 178 0 179 -31 6 c-86 17 -159 109 -159 201 1 94 65 182 150
205 l40 11 0 178 0 179 -34 6 c-84 16 -156 109 -156 202 1 93 66 181 153 205
l37 10 0 264 0 265 -105 0 -105 0 0 -25 c0 -34 -31 -93 -67 -127 -117 -112
-310 -52 -353 110 l-11 42 -174 0 -175 0 0 -25 c0 -14 -9 -42 -19 -63 -94
-182 -347 -152 -401 47 l-11 41 -174 0 -175 0 0 -25 c0 -34 -31 -93 -67 -127
-60 -58 -153 -74 -229 -39 -53 24 -111 93 -122 145 l-8 41 -177 3 -177 2 0
-25 c0 -14 -9 -42 -19 -63 -83 -162 -299 -162 -382 0 -10 21 -19 49 -19 63 l0
25 -180 0 -180 0 0 -25 c0 -14 -9 -42 -19 -63 -83 -162 -299 -162 -382 0 -10
21 -19 49 -19 63 l0 25 -177 -2 -177 -3 -8 -41 c-11 -52 -69 -121 -122 -145
-76 -35 -169 -19 -229 39 -36 34 -67 93 -67 127 l0 25 -175 0 -175 0 -11 -44
c-14 -56 -70 -123 -123 -147 -76 -35 -169 -19 -229 39 -36 34 -67 93 -67 127
l0 25 -175 0 -174 0 -12 -42 c-19 -72 -56 -115 -124 -148 -74 -36 -167 -20
-228 38 -36 34 -67 93 -67 127 l0 25 -175 0 -174 0 -11 -42 c-34 -129 -171
-201 -288 -152 -68 28 -132 110 -132 169 l0 25 -175 0 -174 0 -7 -35 c-23
-126 -174 -209 -292 -159 -68 28 -131 110 -132 172 0 22 0 22 -175 22 l-174 0
-7 -35 c-11 -61 -59 -121 -120 -151 -96 -47 -195 -22 -261 65 -18 23 -36 60
-39 82 l-7 39 -173 0 -173 0 -7 -35 c-11 -61 -59 -121 -120 -151 -96 -47 -195
-22 -261 65 -18 23 -36 60 -39 82 l-7 39 -173 0 -173 0 -7 -35 c-19 -105 -123
-183 -230 -172 -30 3 -70 16 -90 28 -47 29 -93 93 -100 141 l-7 38 -172 0
-173 0 -6 -33 c-20 -106 -126 -185 -232 -174 -30 3 -70 16 -90 28 -47 29 -93
93 -100 141 l-7 38 -172 0 -173 0 -6 -33 c-20 -106 -126 -185 -232 -174 -30 3
-70 16 -90 28 -47 29 -93 93 -100 141 l-7 38 -172 0 -173 0 -6 -33 c-20 -106
-126 -185 -232 -174 -30 3 -70 16 -90 28 -47 29 -93 93 -100 141 l-7 38 -172
0 -173 0 -6 -33 c-3 -19 -20 -55 -36 -81 -67 -104 -215 -126 -313 -45 -36 29
-77 104 -77 139 0 19 -6 20 -173 20 l-173 0 -11 -43 c-51 -190 -291 -225 -390
-57 -18 30 -33 64 -33 77 0 22 -4 23 -65 23 l-65 0 0 -265z m13400 -6740 l0
-6445 -6385 0 -6385 0 0 6445 0 6445 6385 0 6385 0 0 -6445z"/>
<path d="M2594 8058 c19 -35 50 -106 68 -158 l33 -95 0 -430 c0 -489 -1 -494
-89 -681 l-45 -94 180 0 c100 0 179 3 177 8 -143 280 -141 269 -145 782 -2
377 -1 423 12 405 8 -11 207 -276 442 -590 472 -629 462 -618 568 -618 29 0
57 3 64 7 8 5 11 151 11 531 0 316 4 555 11 602 13 97 59 238 105 321 19 34
34 65 34 67 0 3 -81 5 -180 5 -99 0 -180 -3 -180 -6 0 -3 20 -47 45 -97 25
-51 57 -137 71 -192 24 -94 26 -119 31 -412 3 -181 2 -313 -3 -313 -5 0 -180
229 -390 508 l-381 507 -237 3 -237 2 35 -62z"/>
<path d="M5935 7934 c-9 -25 -42 -72 -72 -105 -77 -82 -181 -133 -320 -156
-57 -9 -103 -20 -103 -25 0 -4 29 -8 65 -8 l64 0 3 -417 c3 -415 3 -418 27
-470 75 -167 310 -227 534 -138 71 29 180 110 185 139 3 15 0 17 -14 11 -69
-29 -107 -38 -169 -39 -81 -1 -114 14 -142 67 -16 29 -18 68 -18 437 l0 405
163 3 c154 2 162 4 162 22 0 19 -7 20 -165 20 l-165 0 0 150 c0 83 -4 150 -9
150 -4 0 -16 -20 -26 -46z"/>
<path d="M10367 7919 c-66 -139 -219 -229 -429 -254 -78 -9 -74 -25 6 -25 l65
0 3 -417 c3 -415 3 -418 27 -470 58 -130 215 -199 393 -174 42 6 101 20 132
31 55 21 154 87 189 127 25 28 6 38 -32 18 -17 -8 -63 -20 -103 -26 -132 -20
-190 22 -203 144 -3 34 -5 220 -3 412 l3 350 163 3 c154 2 162 4 162 22 0 19
-7 20 -166 20 l-165 0 1 138 c1 75 1 143 1 150 -2 26 -17 9 -44 -49z"/>
<path d="M4605 7696 c-290 -55 -484 -272 -487 -546 -3 -161 50 -291 161 -400
118 -116 265 -173 451 -173 183 -1 327 53 447 167 179 168 223 427 112 647
-41 83 -153 196 -234 236 -137 70 -309 96 -450 69z m202 -56 c39 -23 77 -94
100 -187 15 -56 18 -113 17 -318 0 -225 -2 -258 -22 -329 -38 -136 -84 -186
-175 -186 -42 0 -53 5 -88 38 -74 70 -103 205 -103 482 0 296 38 450 123 504
36 22 109 20 148 -4z"/>
<path d="M6872 7696 c-213 -41 -375 -189 -438 -401 -24 -82 -24 -258 0 -340
55 -185 186 -314 367 -362 77 -20 241 -22 319 -4 96 23 196 79 264 147 62 63
94 109 83 120 -3 3 -33 -8 -67 -24 -79 -40 -157 -55 -251 -50 -136 8 -222 67
-280 193 -29 62 -56 192 -46 219 6 14 47 16 348 16 l341 0 -7 53 c-28 215
-156 372 -349 423 -78 21 -201 25 -284 10z m168 -65 c53 -37 90 -243 56 -309
-26 -50 -55 -63 -167 -73 -57 -4 -105 -6 -107 -4 -9 8 18 231 33 283 17 55 56
109 89 123 27 11 64 3 96 -20z"/>
<path d="M8020 7700 c-177 -21 -292 -86 -345 -194 -37 -76 -37 -186 0 -262 43
-87 113 -142 315 -244 99 -50 196 -104 215 -121 40 -36 60 -92 51 -142 -16
-86 -86 -122 -223 -115 -180 9 -276 101 -277 265 -1 55 -4 63 -24 72 -27 13
-21 27 -63 -157 -28 -122 -31 -145 -19 -152 20 -12 158 -49 233 -62 34 -6 118
-11 187 -10 237 1 403 71 474 201 51 95 45 217 -17 304 -52 73 -117 118 -299
209 -123 62 -184 98 -213 128 -37 38 -40 45 -40 100 0 49 4 63 25 85 38 41 73
55 137 55 73 0 127 -24 174 -77 31 -34 79 -133 79 -163 0 -5 4 -20 9 -34 7
-18 15 -23 29 -19 17 4 24 26 46 141 14 74 24 137 22 140 -11 10 -161 42 -241
52 -100 11 -139 11 -235 0z"/>
<path d="M9184 7701 c-293 -47 -484 -274 -484 -576 0 -329 220 -549 550 -549
175 1 297 45 407 147 63 59 110 123 99 134 -3 3 -34 -8 -68 -25 -118 -57 -272
-68 -369 -25 -122 54 -209 206 -209 363 l0 40 340 0 340 0 0 43 c-1 191 -146
374 -340 431 -66 20 -197 28 -266 17z m122 -56 c46 -19 72 -77 86 -193 10 -78
9 -91 -7 -126 -24 -51 -74 -72 -189 -79 l-89 -6 7 97 c11 175 46 274 107 304
41 22 41 22 85 3z"/>
<path d="M11244 7700 c-246 -35 -368 -145 -368 -330 1 -155 81 -242 335 -367
90 -45 182 -94 205 -111 53 -39 78 -91 70 -145 -14 -88 -76 -127 -199 -127
-95 0 -163 21 -215 66 -58 49 -82 100 -90 192 -6 67 -10 77 -28 80 -19 3 -23
-10 -52 -140 -18 -79 -32 -148 -32 -155 0 -20 153 -62 285 -79 206 -26 390 4
511 85 102 68 138 133 138 246 0 159 -71 237 -337 371 -226 114 -267 149 -267
227 0 56 25 100 71 126 34 19 52 23 108 19 116 -6 192 -76 233 -212 26 -88 24
-85 46 -79 15 4 23 30 44 141 17 92 22 139 15 144 -5 3 -55 15 -111 27 -117
24 -274 34 -362 21z"/>
</g>
</svg>
