<?xml version="1.0" standalone="no"?>
<!DOCTYPE svg PUBLIC "-//W3C//DTD SVG 20010904//EN"
 "http://www.w3.org/TR/2001/REC-SVG-20010904/DTD/svg10.dtd">
<svg version="1.0" xmlns="http://www.w3.org/2000/svg"
 width="1440.000000pt" height="1440.000000pt" viewBox="0 0 1440.000000 1440.000000"
 preserveAspectRatio="xMidYMid meet">

<g transform="translate(0.000000,1440.000000) scale(0.100000,-0.100000)"
fill="#000000" stroke="none">
<path d="M0 7200 l0 -7200 7200 0 7200 0 0 7200 0 7200 -7200 0 -7200 0 0
-7200z m320 6987 c0 -13 15 -47 33 -77 59 -101 175 -135 281 -85 46 22 93 84
109 142 l11 43 172 0 171 0 7 -39 c8 -50 60 -118 110 -144 98 -51 219 -21 276
69 16 26 33 62 36 81 l6 33 173 0 172 0 7 -38 c7 -48 53 -112 100 -141 93 -58
227 -27 286 65 16 26 33 62 36 81 l6 33 173 0 172 0 7 -38 c7 -48 53 -112 100
-141 93 -58 227 -27 286 65 16 26 33 62 36 81 l6 33 173 0 172 0 7 -38 c7 -48
53 -112 100 -141 93 -58 227 -27 286 65 16 26 33 62 36 81 l6 33 173 0 172 0
7 -38 c7 -48 53 -112 100 -141 92 -57 227 -27 285 64 16 25 32 61 35 80 l7 35
173 0 173 0 7 -39 c7 -47 58 -117 103 -144 18 -10 57 -21 87 -24 47 -5 64 -2
110 21 61 30 109 90 120 151 l7 35 173 0 173 0 7 -39 c7 -47 58 -117 103 -144
18 -10 57 -21 87 -24 47 -5 64 -2 110 21 61 30 109 90 120 151 l7 35 174 0
175 0 0 -25 c0 -59 64 -141 132 -169 118 -50 269 33 292 159 l7 35 174 0 175
0 0 -25 c0 -34 31 -93 67 -127 117 -112 310 -52 353 110 l11 42 174 0 175 0 0
-25 c0 -14 9 -42 19 -63 94 -182 347 -152 401 47 l11 41 174 0 175 0 0 -25 c0
-34 31 -93 67 -127 60 -58 153 -74 229 -39 53 24 109 91 123 147 l11 44 175 0
175 0 0 -25 c0 -34 31 -93 67 -127 60 -58 153 -74 229 -39 53 24 111 93 122
145 l8 41 177 3 177 2 0 -25 c0 -14 9 -42 19 -63 83 -162 299 -162 382 0 10
21 19 49 19 63 l0 25 180 0 180 0 0 -25 c0 -14 9 -42 19 -63 83 -162 299 -162
382 0 10 21 19 49 19 63 l0 25 177 -2 177 -3 8 -41 c11 -52 69 -121 122 -145
76 -35 169 -19 229 39 36 34 67 93 67 127 l0 25 175 0 174 0 11 -41 c35 -131
170 -203 288 -153 68 28 132 110 132 169 l0 25 175 0 174 0 11 -42 c34 -129
171 -201 288 -152 68 28 132 110 132 169 l0 25 105 0 105 0 0 -265 0 -264 -37
-10 c-87 -24 -152 -112 -153 -205 0 -93 72 -186 156 -202 l34 -6 0 -179 0
-178 -40 -11 c-51 -14 -108 -63 -131 -115 -53 -117 19 -267 140 -291 l31 -6 0
-179 0 -178 -40 -11 c-85 -23 -149 -111 -150 -203 0 -90 64 -177 146 -199 l44
-12 0 -178 0 -177 -40 -11 c-51 -14 -108 -63 -131 -115 -53 -117 19 -267 140
-291 l31 -6 0 -178 0 -177 -40 -12 c-52 -15 -108 -65 -131 -116 -53 -117 19
-267 140 -291 l31 -6 0 -178 0 -177 -40 -12 c-52 -15 -108 -65 -131 -116 -53
-117 19 -267 140 -291 l31 -6 0 -178 0 -177 -40 -12 c-86 -26 -149 -112 -150
-205 0 -90 75 -186 160 -203 l30 -5 0 -178 0 -177 -40 -12 c-86 -26 -149 -112
-150 -205 0 -90 71 -182 158 -201 l32 -7 0 -177 0 -178 -40 -12 c-22 -6 -56
-26 -76 -43 -124 -109 -87 -301 67 -355 l49 -18 0 -177 0 -176 -32 -7 c-122
-27 -195 -182 -139 -294 26 -50 81 -97 131 -112 l40 -12 0 -178 0 -177 -32 -7
c-87 -19 -158 -111 -158 -201 1 -93 64 -179 150 -205 l40 -12 0 -177 0 -178
-30 -5 c-85 -17 -160 -113 -160 -203 1 -93 64 -179 150 -205 l40 -12 0 -177 0
-178 -31 -6 c-86 -17 -159 -109 -159 -201 1 -94 63 -180 150 -206 l40 -12 0
-177 0 -177 -31 -7 c-86 -17 -159 -109 -159 -201 1 -94 63 -180 150 -206 l40
-12 0 -177 0 -178 -31 -6 c-86 -17 -159 -109 -159 -201 1 -94 65 -182 150
-205 l40 -11 0 -177 0 -178 -44 -12 c-82 -22 -146 -109 -146 -199 1 -92 65
-180 150 -203 l40 -11 0 -177 0 -178 -44 -12 c-82 -22 -146 -109 -146 -199 1
-92 65 -180 150 -203 l40 -11 0 -294 0 -295 -105 0 -105 0 0 25 c0 34 -31 93
-67 127 -117 112 -310 52 -353 -109 l-11 -43 -174 0 -175 0 0 25 c0 14 -9 42
-19 63 -94 182 -347 152 -401 -47 l-11 -41 -174 0 -175 0 0 25 c0 34 -31 93
-67 127 -60 58 -153 74 -229 39 -53 -24 -111 -93 -122 -145 l-8 -41 -177 -3
-177 -2 0 25 c0 59 -64 141 -132 169 -120 50 -260 -28 -288 -159 l-6 -30 -177
-3 -177 -2 0 25 c0 14 -9 42 -19 63 -83 162 -299 162 -382 0 -10 -21 -19 -49
-19 -63 l0 -25 -177 2 -177 3 -8 41 c-11 52 -69 121 -122 145 -76 35 -169 19
-229 -39 -36 -34 -67 -93 -67 -127 l0 -25 -175 0 -175 0 -11 44 c-14 56 -70
123 -123 147 -76 35 -169 19 -229 -39 -36 -34 -67 -93 -67 -127 l0 -25 -175 0
-174 0 -12 42 c-34 129 -171 201 -287 152 -68 -28 -132 -110 -132 -169 l0 -25
-175 0 -174 0 -11 43 c-34 128 -171 200 -288 151 -68 -28 -132 -110 -132 -169
l0 -25 -175 0 -174 0 -7 35 c-24 130 -180 211 -299 156 -67 -31 -125 -111
-125 -171 0 -19 -6 -20 -175 -20 l-174 0 -7 35 c-11 61 -59 121 -120 151 -96
47 -195 22 -261 -65 -18 -23 -36 -60 -39 -82 l-7 -39 -173 0 -173 0 -7 35
c-11 61 -59 121 -120 151 -96 47 -195 22 -261 -65 -18 -23 -36 -60 -39 -82
l-7 -39 -173 0 -173 0 -7 35 c-19 105 -123 183 -230 172 -30 -3 -70 -16 -90
-28 -47 -29 -93 -93 -100 -141 l-7 -38 -172 0 -173 0 -6 33 c-20 106 -126 185
-232 174 -30 -3 -70 -16 -90 -28 -47 -29 -93 -93 -100 -141 l-7 -38 -172 0
-173 0 -6 33 c-20 106 -126 185 -232 174 -30 -3 -70 -16 -90 -28 -47 -29 -93
-93 -100 -141 l-7 -38 -172 0 -173 0 -6 33 c-20 106 -126 185 -232 174 -30 -3
-70 -16 -90 -28 -47 -29 -93 -93 -100 -141 l-7 -38 -172 0 -173 0 -6 33 c-20
106 -126 185 -232 174 -30 -3 -70 -16 -90 -28 -47 -29 -93 -93 -100 -141 l-7
-38 -171 0 -172 0 -11 43 c-42 154 -214 215 -341 120 -34 -26 -82 -109 -82
-143 0 -18 -6 -20 -65 -20 l-65 0 0 295 0 295 28 0 c48 0 127 47 158 93 36 54
46 155 19 208 -35 68 -90 109 -167 123 l-38 7 0 174 0 175 28 0 c48 0 127 47
158 93 23 34 29 56 32 112 4 66 2 73 -30 120 -36 54 -89 89 -149 99 l-39 6 0
175 0 175 28 0 c48 0 127 47 158 93 23 34 29 56 32 112 4 66 2 73 -30 120 -36
54 -89 89 -149 99 l-39 6 0 175 0 175 33 0 c47 0 116 41 151 89 26 36 31 53
34 114 3 66 1 76 -27 120 -31 47 -77 83 -118 92 -13 3 -34 7 -48 10 l-25 5 0
175 0 175 33 0 c49 0 114 39 150 88 27 37 32 54 35 115 3 66 1 76 -27 120 -31
47 -77 83 -118 92 -13 3 -34 7 -48 10 l-25 5 0 175 0 175 33 0 c49 0 114 39
150 88 27 37 32 54 35 115 4 68 2 75 -30 122 -37 56 -101 95 -155 95 l-33 0 0
179 0 178 46 6 c142 16 224 195 145 318 -35 55 -87 90 -147 97 l-44 5 0 177 0
177 46 6 c142 16 224 195 145 318 -35 55 -87 90 -147 97 l-44 5 0 177 0 177
44 5 c60 7 112 42 147 97 79 123 -3 302 -145 318 l-46 6 0 177 0 177 44 5 c60
7 112 42 147 97 79 123 -3 302 -145 318 l-46 6 0 178 0 179 33 0 c54 0 118 39
155 95 32 47 34 54 30 122 -3 61 -8 78 -35 115 -36 49 -101 88 -150 88 l-33 0
0 175 c0 173 0 175 23 179 62 13 74 17 105 36 18 11 46 41 63 67 28 44 30 54
27 120 -3 61 -8 78 -35 115 -36 49 -101 88 -150 88 l-33 0 0 175 0 175 25 5
c14 3 35 7 47 10 42 9 88 45 119 92 28 44 30 54 27 120 -3 61 -8 78 -34 114
-35 48 -104 89 -151 89 l-33 0 0 175 0 175 39 6 c60 10 113 45 149 99 32 47
34 54 30 121 -3 59 -8 78 -33 114 -32 47 -108 90 -157 90 l-28 0 0 175 0 175
39 6 c60 10 113 45 149 99 32 47 34 54 30 120 -3 56 -9 78 -32 112 -31 46
-110 93 -158 93 l-28 0 0 175 0 174 38 7 c76 14 131 53 164 118 30 58 22 156
-16 213 -31 46 -110 93 -158 93 l-28 0 0 175 0 175 39 6 c60 10 113 45 149 99
32 47 34 54 30 120 -3 58 -8 77 -33 113 -33 46 -111 92 -157 92 l-28 0 0 265
0 265 65 0 c61 0 65 -1 65 -23z"/>
<path d="M820 7205 l0 -6445 6385 0 6385 0 0 6445 0 6445 -6385 0 -6385 0 0
-6445z m2594 403 c210 -279 385 -507 390 -508 5 0 6 134 3 313 -5 294 -6 318
-31 412 -14 55 -46 141 -71 192 -25 50 -45 94 -45 97 0 3 81 6 180 6 99 0 180
-2 180 -5 0 -2 -15 -33 -34 -67 -46 -83 -92 -224 -105 -321 -7 -47 -11 -286
-11 -602 0 -380 -3 -526 -11 -531 -7 -4 -35 -7 -64 -7 -106 0 -96 -11 -568
618 -235 314 -434 579 -442 590 -13 18 -14 -27 -12 -405 4 -513 2 -502 145
-782 2 -5 -77 -8 -177 -8 l-180 0 45 94 c88 187 89 192 89 681 l0 430 -28 85
c-16 47 -47 118 -68 158 l-40 72 237 -2 237 -3 381 -507z m2556 222 l0 -150
165 0 c158 0 165 -1 165 -20 0 -18 -8 -20 -162 -22 l-163 -3 0 -405 c0 -369 2
-408 18 -437 28 -53 61 -68 142 -67 62 1 100 10 169 39 14 6 17 4 14 -11 -5
-29 -114 -110 -185 -139 -224 -89 -459 -29 -534 138 -24 52 -24 55 -27 470
l-3 417 -64 0 c-76 0 -87 16 -17 25 176 23 290 73 376 166 30 32 62 78 71 103
10 26 22 46 26 46 5 0 9 -67 9 -150z m4441 138 c0 -7 0 -75 -1 -150 l-1 -138
165 0 c159 0 166 -1 166 -20 0 -18 -8 -20 -162 -22 l-163 -3 -3 -350 c-2 -192
0 -378 3 -412 13 -122 71 -164 203 -144 40 6 86 18 103 26 44 23 56 8 22 -27
-46 -48 -141 -107 -207 -127 -221 -68 -426 -5 -497 152 -24 52 -24 55 -27 470
l-3 417 -65 0 c-35 0 -64 4 -64 9 0 5 37 14 83 21 205 30 339 112 404 250 27
57 42 74 44 48z m-5505 -284 c218 -56 387 -222 430 -423 65 -307 -116 -584
-436 -667 -85 -23 -252 -23 -340 0 -217 55 -382 215 -430 416 -31 127 -7 292
59 405 134 231 432 343 717 269z m2250 2 c193 -51 321 -208 349 -423 l7 -53
-341 0 c-301 0 -342 -2 -348 -16 -10 -27 17 -157 46 -219 58 -126 144 -185
280 -193 94 -5 172 10 251 50 34 16 64 27 67 24 25 -25 -121 -171 -218 -218
-98 -48 -164 -62 -284 -62 -170 1 -295 48 -398 150 -104 103 -151 227 -151
399 0 126 16 192 71 297 115 220 406 335 669 264z m1099 14 c80 -10 230 -42
241 -52 2 -3 -8 -66 -22 -140 -22 -115 -29 -137 -46 -141 -21 -6 -29 9 -43 73
-19 88 -86 175 -157 204 -47 20 -140 21 -176 2 -57 -30 -77 -63 -77 -126 0
-55 3 -62 40 -100 28 -29 90 -66 210 -127 94 -46 192 -101 218 -121 131 -100
172 -261 101 -393 -71 -130 -237 -200 -474 -201 -69 -1 -153 4 -187 10 -75 13
-213 50 -233 62 -12 7 -8 32 20 157 18 81 35 150 36 152 2 2 13 1 26 -2 21 -6
23 -12 24 -69 0 -115 42 -186 138 -235 68 -35 204 -44 271 -18 76 29 110 97
86 175 -17 57 -63 90 -261 190 -202 102 -272 157 -315 244 -54 111 -27 269 61
345 109 96 297 136 519 111z m1123 0 c229 -38 391 -204 409 -422 l6 -68 -342
0 -341 0 0 -40 c0 -157 87 -309 209 -363 97 -43 251 -32 369 25 34 17 65 28
68 25 11 -11 -36 -75 -99 -134 -110 -102 -232 -146 -407 -147 -330 0 -550 220
-550 549 0 374 307 635 678 575z m2228 -21 c56 -12 106 -24 111 -27 7 -5 2
-52 -15 -144 -21 -111 -29 -137 -44 -141 -22 -6 -20 -9 -46 79 -41 136 -117
206 -233 212 -56 4 -74 0 -108 -19 -93 -52 -95 -178 -4 -245 15 -12 105 -60
200 -108 266 -134 337 -212 337 -371 0 -113 -36 -178 -138 -246 -121 -81 -305
-111 -511 -85 -132 17 -285 59 -285 79 0 7 14 76 32 155 29 130 33 143 52 140
18 -3 22 -13 28 -80 8 -92 32 -143 90 -192 52 -45 120 -66 215 -66 123 0 185
39 199 127 8 54 -17 106 -70 145 -23 17 -114 66 -204 110 -183 89 -264 153
-309 242 -36 70 -37 177 -4 253 80 180 364 253 707 182z"/>
<path d="M4644 7628 c-78 -69 -108 -201 -108 -478 -1 -283 25 -410 99 -487 38
-39 46 -43 91 -43 92 0 138 49 176 186 20 71 22 104 22 329 1 272 -8 334 -59
435 -32 63 -73 90 -137 90 -39 0 -54 -6 -84 -32z"/>
<path d="M6944 7651 c-33 -14 -72 -68 -89 -123 -16 -54 -42 -275 -33 -283 3
-3 51 -1 107 4 112 11 141 23 167 73 34 66 -3 272 -56 309 -32 23 -69 31 -96
20z"/>
<path d="M9221 7642 c-61 -30 -96 -129 -107 -305 l-7 -98 69 6 c140 12 152 15
183 46 38 38 46 81 32 176 -16 106 -41 160 -85 178 -44 19 -44 19 -85 -3z"/>
</g>
</svg>
